<?xml version="1.0" encoding="utf-8"?>
<!-- Generator: Adobe Illustrator 25.4.1, SVG Export Plug-In . SVG Version: 6.00 Build 0)  -->
<svg version="1.1" id="Layer_1" xmlns="http://www.w3.org/2000/svg" xmlns:xlink="http://www.w3.org/1999/xlink" x="0px" y="0px"
	 viewBox="0 0 600 138.6" style="enable-background:new 0 0 600 138.6;" xml:space="preserve">
<style type="text/css">
	.st0{display:none;}
	.st1{fill:#FFFFFF;}
</style>
<path class="st0" d="M40,28.6c-13.1,0-22.9,3.5-29.3,10.4C4.2,45.9,1,56.6,1,71.2c0,14.5,3.2,25.3,9.7,32.2
	c6.4,6.9,16.2,10.4,29.3,10.4c10.8,0,19.5-2.6,26.1-7.7c6.6-5.1,9.9-12.8,9.9-23H55.1c0,4.5-1.4,8-4.1,10.5
	c-2.7,2.5-6.3,3.7-10.8,3.7c-6.3,0-10.8-1.7-13.5-5.2c-2.7-3.5-4.1-8.8-4.3-16H76v-5c0-14.4-3-25.1-9-32.1
	C61.1,32.1,52,28.6,40,28.6z M22.8,62c0.6-5.7,2.3-9.9,5-12.7c2.7-2.8,6.8-4.2,12.1-4.2c9.4,0,14.1,5.6,14.1,16.9H22.8z M135.4,28.6
	c-5.3,0-10.1,1.1-14.4,3.2c-4.3,2.1-7.8,5.2-10.4,9.4h-1.1l-1.4-10.7H90.1v108.1h21.2v-36.2h0.9c2.4,3.6,5.6,6.4,9.8,8.3
	c4.2,2,9,2.9,14.5,2.9c9.5,0,17.1-3.6,22.8-10.7c5.7-7.1,8.6-17.7,8.6-31.7c0-14.3-2.8-25-8.5-32.1
	C153.7,32.2,145.7,28.6,135.4,28.6z M146.1,72.5c0,7.6-1.3,13.3-4,17.1c-2.7,3.8-7.2,5.6-13.5,5.6c-11.6,0-17.3-7.7-17.3-23.1v-2.5
	c0-15.2,5.8-22.7,17.3-22.7c6.3,0,10.8,1.9,13.5,5.6c2.7,3.8,4,9.5,4,17.1V72.5z M182.3,0h21.2v19.2h-21.2V0z M182.3,30.5h21.2v81.4
	h-21.2V30.5z M244.6,30.5h14.1v17.3h-14.1v41.9c0,4.4,2.2,6.7,6.7,6.7h7.4v14.8c-1.8,0.6-3.9,1.2-6.6,1.7c-2.6,0.5-5.1,0.8-7.3,0.8
	c-7.6,0-13.1-2.1-16.4-6.2c-3.3-4.1-5-9.3-5-15.6V47.8h-9.7V30.5h10.2l3.6-22.9h17.2L244.6,30.5L244.6,30.5z M308.4,28.6
	c-13.9,0-24.3,3.5-31.1,10.4c-6.8,6.9-10.2,17.6-10.2,32.2c0,14.5,3.4,25.3,10.2,32.2c6.8,6.9,17.2,10.4,31.1,10.4
	c13.9,0,24.3-3.5,31.2-10.4c6.9-6.9,10.3-17.6,10.3-32.2c0-14.5-3.4-25.3-10.3-32.2C332.7,32.1,322.3,28.6,308.4,28.6z M328,72.4
	c0,8-1.5,14.1-4.6,18c-3.1,4-8.1,6-15,6c-6.9,0-11.9-2-14.9-6c-3-4-4.6-10-4.6-18v-2.5c0-8,1.5-14.1,4.6-18c3-4,8-6,14.9-6
	c6.9,0,11.9,2,15,6c3.1,4,4.6,10,4.6,18V72.4z M471.9,35.4c4.6,4.5,6.9,11.8,6.9,21.8v54.6h-21.2V61.7c0-9.6-4-14.4-11.9-14.4
	c-4.1,0-7.5,1.7-10.2,5c-2.7,3.4-4,7.5-4,12.5v47h-21.2V61.7c0-9.6-4-14.4-11.9-14.4c-4.1,0-7.6,1.7-10.3,5
	c-2.7,3.4-4.1,7.5-4.1,12.5v47h-21.2V30.5h18.1l1.5,10.7h1.1c6-8.4,13.7-12.5,23.2-12.5c10.3,0,17.4,4.2,21.3,12.5h1.2
	c6.2-8.4,14.2-12.5,24.1-12.5C461.2,28.6,467.3,30.9,471.9,35.4z M531.6,28.6c-13.1,0-22.9,3.5-29.3,10.4
	c-6.4,6.9-9.7,17.6-9.7,32.2c0,14.5,3.2,25.3,9.7,32.2c6.4,6.9,16.2,10.4,29.3,10.4c10.8,0,19.5-2.6,26.1-7.7
	c6.6-5.1,9.9-12.8,9.9-23h-20.9c0,4.5-1.4,8-4.1,10.5s-6.3,3.7-10.8,3.7c-6.3,0-10.8-1.7-13.5-5.2c-2.7-3.5-4.1-8.8-4.3-16h53.5v-5
	c0-14.4-3-25.1-9-32.1C552.6,32.1,543.6,28.6,531.6,28.6z M514.4,62c0.6-5.7,2.3-9.9,5-12.7c2.7-2.8,6.8-4.2,12.1-4.2
	c9.4,0,14.1,5.6,14.1,16.9H514.4z M599,90.6v21.2h-21.3V90.6H599z"/>
<g>
	<g>
		<path class="st1" d="M3,23.4h32.2c20.7,0,37.3,7.4,37.3,30.2c0,22.1-16.8,31.8-36.7,31.8H24.2v31.8H3V23.4z M34.5,68.5
			c11.7,0,17.2-5.2,17.2-15c0-9.8-6.3-13.3-17.8-13.3h-9.8v28.3H34.5z"/>
		<path class="st1" d="M82.9,81.5c0-23.8,16.7-37.5,34.8-37.5s34.8,13.7,34.8,37.5c0,23.7-16.7,37.4-34.8,37.4S82.9,105.2,82.9,81.5
			z M130.8,81.5c0-12.4-4.4-20.4-13.1-20.4s-13.1,8-13.1,20.4c0,12.4,4.4,20.3,13.1,20.3S130.8,93.9,130.8,81.5z"/>
		<path class="st1" d="M166.9,45.8h17.3l1.5,12.5h0.5c5.2-9.5,13-14.2,20.3-14.2c4.1,0,6.5,0.5,8.5,1.4l-3.5,18.3
			c-2.5-0.6-4.6-1.2-7.7-1.2c-5.4,0-11.9,3.5-15.7,13.2v41.4h-21.2V45.8z"/>
		<path class="st1" d="M227.1,91.2V62.4h-9.8V46.6l10.9-0.8l2.5-19h17.5v19h17.1v16.6h-17.1V91c0,8.1,3.7,11.3,9.2,11.3
			c2.4,0,4.9-0.7,6.8-1.4l3.3,15.4c-3.8,1.2-8.9,2.6-15.9,2.6C234.1,119,227.1,107.8,227.1,91.2z"/>
		<path class="st1" d="M273.6,46.6l10.7-0.8h32.8v16.6h-43.5V46.6z M283.1,42.1c0-15.1,7-27.5,26.3-27.5c6,0,11.1,1.3,14.2,2.5
			l-3.8,15.6c-2.4-1-5-1.5-7.4-1.5c-5.2,0-8.1,2.8-8.1,10.2v75.8h-21.2V42.1z"/>
		<path class="st1" d="M324.4,81.5c0-23.8,16.7-37.5,34.8-37.5c18.1,0,34.8,13.7,34.8,37.5c0,23.7-16.7,37.4-34.8,37.4
			C341.1,119,324.4,105.2,324.4,81.5z M372.3,81.5c0-12.4-4.4-20.4-13.1-20.4c-8.8,0-13.1,8-13.1,20.4c0,12.4,4.4,20.3,13.1,20.3
			C367.9,101.9,372.3,93.9,372.3,81.5z"/>
		<path class="st1" d="M408.4,95V16.3h21.2v79.5c0,4.5,2.1,6,3.8,6c0.8,0,1.4,0,2.6-0.3l2.5,15.6c-2.3,1-5.8,1.8-10.6,1.8
			C413.4,119,408.4,109.5,408.4,95z"/>
		<path class="st1" d="M448,24.3c0-6.5,5.2-11.1,12.3-11.1c7.1,0,12.3,4.6,12.3,11.1c0,6.4-5.2,11.1-12.3,11.1
			C453.1,35.3,448,30.7,448,24.3z M449.6,45.8h21.2v71.4h-21.2V45.8z"/>
		<path class="st1" d="M485.2,81.5c0-23.8,16.7-37.5,34.8-37.5c18.1,0,34.8,13.7,34.8,37.5c0,23.7-16.7,37.4-34.8,37.4
			C501.9,119,485.2,105.2,485.2,81.5z M533.1,81.5c0-12.4-4.4-20.4-13.1-20.4c-8.8,0-13.1,8-13.1,20.4c0,12.4,4.4,20.3,13.1,20.3
			C528.8,101.9,533.1,93.9,533.1,81.5z"/>
		<path class="st1" d="M568.8,105.6c0-7.5,5.4-13.4,12.8-13.4s12.8,5.8,12.8,13.4c0,7.5-5.4,13.3-12.8,13.3S568.8,113.1,568.8,105.6
			z"/>
	</g>
</g>
</svg>
